# xmcd CD database file
#
# Track frame offsets:
#	150
#	11921
#	22825
#	32539
#	43180
#	52656
#	62939
#	73319
#	81999
#	91290
#	102637
#	111336
#	120623
#	130494
#	140385
#	149909
#	158251
#	168514
#
# Disc length: 2377 seconds
#
# Revision: 0
# Processed by: cddbd v1.5.2PL0 Copyright (c) Steve Scherf et al.
# Submitted via: CDex 1.70beta2
#
DISCID=03094712
DTITLE=Fats Domino - The Collection
DYEAR=2008
DGENRE=Blues
TTITLE0=The Fat Man
TTITLE1=Ain't That A Shame
TTITLE2=My Blue Heaven
TTITLE3=Blueberry Hill
TTITLE4=I'm Walking
TTITLE5=When My Dreamboat Comes Home
TTITLE6=Blue Monday
TTITLE7=I'm In Love Again
TTITLE8=The Big Beat
TTITLE9=Goin' To The River
TTITLE10=Wait And See
TTITLE11=Bo Weevil
TTITLE12=Every Night About This Time
TTITLE13=Goin' Home
TTITLE14=It's You I Love
TTITLE15=Valley Of Tears
TTITLE16=All By Myself
TTITLE17=So Long
EXTD=YEAR: 2008
EXTT0=
EXTT1=
EXTT2=
EXTT3=
EXTT4=
EXTT5=
EXTT6=
EXTT7=
EXTT8=
EXTT9=
EXTT10=
EXTT11=
EXTT12=
EXTT13=
EXTT14=
EXTT15=
EXTT16=
EXTT17=
PLAYORDER=
